<?xml version="1.0" encoding="UTF-8" standalone="no"?>
<svg
   xmlns:dc="http://purl.org/dc/elements/1.1/"
   xmlns:cc="http://creativecommons.org/ns#"
   xmlns:rdf="http://www.w3.org/1999/02/22-rdf-syntax-ns#"
   xmlns:svg="http://www.w3.org/2000/svg"
   xmlns="http://www.w3.org/2000/svg"
   xmlns:sodipodi="http://sodipodi.sourceforge.net/DTD/sodipodi-0.dtd"
   xmlns:inkscape="http://www.inkscape.org/namespaces/inkscape"
   enable-background="new 0 0 32 32"
   height="64"
   id="Layer_1"
   version="1.1"
   viewBox="0 0 64 64"
   width="64"
   xml:space="preserve"
   inkscape:version="0.91 r13725"
   sodipodi:docname="view-window-spread-symbolic.svg"><metadata
     id="metadata12"><rdf:RDF><cc:Work
         rdf:about=""><dc:format>image/svg+xml</dc:format><dc:type
           rdf:resource="http://purl.org/dc/dcmitype/StillImage" /><dc:title /></cc:Work></rdf:RDF></metadata><defs
     id="defs10" /><sodipodi:namedview
     pagecolor="#ffffff"
     bordercolor="#666666"
     borderopacity="1"
     objecttolerance="10"
     gridtolerance="10"
     guidetolerance="10"
     inkscape:pageopacity="0"
     inkscape:pageshadow="2"
     inkscape:window-width="1366"
     inkscape:window-height="697"
     id="namedview8"
     showgrid="true"
     inkscape:zoom="16"
     inkscape:cx="20.931553"
     inkscape:cy="36.933912"
     inkscape:window-x="0"
     inkscape:window-y="32"
     inkscape:window-maximized="1"
     inkscape:current-layer="Layer_1"
     showguides="true"
     inkscape:guide-bbox="true"><inkscape:grid
       type="xygrid"
       id="grid2991"
       empspacing="5"
       visible="true"
       enabled="true"
       snapvisiblegridlinesonly="true" /><sodipodi:guide
       position="12,12"
       orientation="0,1"
       id="guide4156"
       inkscape:label=""
       inkscape:color="rgb(0,0,255)" /><sodipodi:guide
       position="-45,25"
       orientation="1,0"
       id="guide4158" /><sodipodi:guide
       position="0,52"
       orientation="0,1"
       id="guide4160"
       inkscape:label=""
       inkscape:color="rgb(0,0,255)" /><sodipodi:guide
       position="12,0"
       orientation="1,0"
       id="guide4226"
       inkscape:label=""
       inkscape:color="rgb(0,0,255)" /><sodipodi:guide
       position="52,0"
       orientation="1,0"
       id="guide4228"
       inkscape:label=""
       inkscape:color="rgb(0,0,255)" /></sodipodi:namedview><g
     id="Layer_1-2"
     transform="matrix(0.5,0,0,0.5,0,48)" /><path
     style="opacity:1;fill:#bebebe;fill-opacity:1;stroke:none;stroke-opacity:1"
     d="M 50.800781,12 C 51.465581,12 52,12.611322 52,13.371094 l 0,24.336778 c 0,0.759772 -0.534419,1.371094 -1.199219,1.371094 l -25.601562,0 C 24.534419,39.078966 24,38.467644 24,37.707872 L 24,13.371094 C 24,12.611322 24.534419,12 25.199219,12 Z m -4,8 -17.601562,0 C 28.534419,20 28,20.611322 28,21.371094 l 0,12.274278 c 0,0.759772 0.534419,1.371094 1.199219,1.371094 l 17.601562,0 C 47.465581,35.016466 48,34.405144 48,33.645372 L 48,21.371094 C 48,20.611322 47.465581,20 46.800781,20 Z"
     id="rect4260"
     inkscape:connector-curvature="0"
     sodipodi:nodetypes="ssssssssssssssssss" /><path
     style="opacity:1;fill:#bebebe;fill-opacity:1;stroke:none;stroke-opacity:1"
     d="m 26,26 0,8 -8.800781,0 C 16.534419,34 16,34.622371 16,35.382143 l 0,12.279695 c 0,0.759772 0.534419,1.371094 1.199219,1.371094 l 17.601562,0 C 35.465581,49.032932 36,48.42161 36,47.661838 L 36,35.955806 40,36 40,51.617644 c 0,0.759772 -0.534419,1.371094 -1.199219,1.371094 l -25.601562,0 C 12.534419,52.988738 12,52.377416 12,51.617644 l 0,-24.24655 C 12,26.611322 12.534419,26 13.199219,26 Z"
     id="rect4260-2"
     inkscape:connector-curvature="0"
     sodipodi:nodetypes="ccssssssccssssssc" /></svg>